<svg aria-hidden="true" style="position:absolute;width:0;height:0;overflow:hidden" xmlns="http://www.w3.org/2000/svg"><defs><symbol id="twitter" viewBox="0 0 32 32"><path d="M32 5.44c-1.097.551-2.37.957-3.712 1.152l-.068.008c1.36-.908 2.398-2.336 2.886-4.054a12.155 12.155 0 0 1-4.077 1.758l-.083.016C25.742 2.888 24.026 2 22.154 2c-3.632 0-6.556 3.296-6.556 7.336 0 .58.044 1.14.152 1.672-5.454-.298-10.28-3.22-13.522-7.672a7.953 7.953 0 0 0-.898 3.697v.011-.001c0 2.54 1.17 4.79 2.914 6.094a5.942 5.942 0 0 1-2.988-.918l.024.014v.08c0 3.566 2.274 6.526 5.256 7.208a5.94 5.94 0 0 1-1.72.24c-.42 0-.844-.026-1.242-.124.85 2.904 3.262 5.04 6.13 5.108-2.232 1.952-5.066 3.128-8.134 3.128-.538 0-1.054-.028-1.57-.1 2.906 2.094 6.35 3.29 10.064 3.29 12.072 0 18.672-11.18 18.672-20.868 0-.324-.01-.638-.024-.948a14.157 14.157 0 0 0 3.253-3.744L32 5.439z"/></symbol><symbol id="star-full" viewBox="0 0 32 32"><path fill="#ab816c" style="fill:var(--color1, #ab816c)" d="M14.478 2.283c.48-1.474 2.565-1.474 3.043 0l2.43 7.478a1.603 1.603 0 0 0 1.52 1.104h7.864c1.55 0 2.194 1.984.941 2.896l-6.362 4.621a1.6 1.6 0 0 0-.577 1.8l-.003-.011 2.429 7.478c.48 1.475-1.208 2.701-2.462 1.789l-6.36-4.621c-.26-.191-.587-.306-.941-.306s-.68.115-.945.309l.004-.003-6.362 4.621c-1.253.912-2.941-.315-2.461-1.789l2.429-7.478a1.598 1.598 0 0 0-.577-1.786l-.004-.003-6.362-4.621c-1.253-.912-.608-2.896.941-2.896h7.862c.706 0 1.306-.458 1.518-1.093l.003-.011 2.432-7.478z"/></symbol><symbol id="star-empty" viewBox="0 0 32 32"><path fill="none" stroke="#ab816c" style="stroke:var(--color1, #ab816c)" stroke-width="1.6" d="M15.238 2.531a.801.801 0 0 1 1.522-.006l.002.006 2.429 7.477a2.405 2.405 0 0 0 2.283 1.659h7.862a.8.8 0 0 1 .473 1.445l-.002.002-6.362 4.622a2.397 2.397 0 0 0-.867 2.7l-.005-.017 2.43 7.478a.8.8 0 0 1-1.235.893l.002.002-6.36-4.622c-.391-.287-.881-.459-1.411-.459s-1.021.172-1.418.463l.007-.005-6.36 4.622a.8.8 0 0 1-1.23-.902l-.002.006 2.43-7.477a2.397 2.397 0 0 0-.866-2.678l-.007-.005-6.363-4.622a.8.8 0 0 1 .47-1.446h7.862a2.4 2.4 0 0 0 2.278-1.642l.005-.017 2.429-7.477z"/></symbol><symbol id="phone" viewBox="0 0 32 32"><path d="M29.43 19.938h-.041c-2.022 0-3.971-.315-5.8-.899l.135.037c-.894-.29-1.991-.025-2.535.507L17.59 22.16c-4.172-2.114-6.742-4.554-8.938-8.485l2.634-3.326a2.365 2.365 0 0 0 .633-2.502l.005.017c-.577-1.61-.911-3.467-.911-5.402v-.027.001c-.002-1.344-1.157-2.437-2.57-2.437H2.567C1.152-.001 0 1.092 0 2.436c0 15.409 13.201 27.938 29.43 27.938 1.415 0 2.567-1.093 2.567-2.437v-5.563c0-1.344-1.152-2.437-2.567-2.437z"/></symbol><symbol id="people" viewBox="0 0 32 32"><path fill="#674d40" style="fill:var(--color2, #674d40)" d="M10.607 0C7.314 0 4.632 3.078 4.632 6.856c0 3.779 2.682 6.856 5.975 6.856s5.976-3.078 5.976-6.856C16.583 3.077 13.901 0 10.605 0zm0 12.562c-2.749 0-4.98-2.566-4.98-5.714 0-3.145 2.237-5.713 4.98-5.713 2.75 0 4.98 2.566 4.98 5.714 0 3.147-2.235 5.713-4.98 5.713zm12.239-9.716c-2.475 0-4.486 2.306-4.486 5.144 0 2.84 2.011 5.146 4.486 5.146 2.473 0 4.485-2.306 4.485-5.146 0-2.839-2.011-5.144-4.485-5.144zm0 9.156c-1.926 0-3.49-1.795-3.49-4.003s1.565-4.003 3.49-4.003c1.925 0 3.49 1.795 3.49 4.003 0 2.21-1.565 4.003-3.49 4.003z"/><path fill="#674d40" style="fill:var(--color2, #674d40)" d="M30.868 20.678c-.451-3.125-2.144-5.76-5.029-7.142 0 0-1.277 1.108-2.993 1.073-1.876-.043-2.994-1.073-2.994-1.073s-1.393.596-2.517 1.836c-1.039-1.058-2.793-1.92-2.793-1.92s-1.606 1.402-3.941 1.381c-2.449-.021-3.927-1.381-3.927-1.381S1.376 15.54.257 22.628c0 0-1.198 3.756 1.576 9.371h17.554s1.246-2.488 1.466-4.003h8.731c2.146-3.729 1.283-7.317 1.283-7.317zM18.77 30.857H2.45c-2.133-4.648-1.21-8.04-1.21-8.04.52-3.555 2.511-6.554 5.359-8.076 1.123.774 2.513 1.236 4.011 1.236s2.888-.462 4.036-1.251l-.024.016c2.846 1.522 4.838 4.521 5.358 8.076-.006 0 .881 4.177-1.21 8.04zm10.234-4.003h-7.948c.305-2.018-.098-4.227-.098-4.227-.361-2.494-1.387-4.745-2.891-6.484a7.144 7.144 0 0 1 1.705-1.317 5.556 5.556 0 0 0 6.141 0c2.107 1.155 3.586 3.392 3.971 6.042 0 0 .727 2.831-.881 5.986z"/></symbol><symbol id="location" viewBox="0 0 32 32"><path d="M16 0c6.933 0 12.571 5.353 12.571 11.934 0 2.606-.869 5.079-2.507 7.154l-9.289 11.877c-.023.027-.059.039-.085.064a.967.967 0 0 1-1.462-.062l-.002-.002c-2.677-3.387-7.579-9.714-9.463-12.103l-.002-.002-.011-.016a11.364 11.364 0 0 1-2.322-6.91C3.428 5.353 9.067 0 15.999 0zm0 18.373c3.733 0 6.782-2.896 6.782-6.439S19.733 5.495 16 5.495s-6.782 2.896-6.782 6.439 3.049 6.439 6.782 6.439z"/></symbol><symbol id="instagram" viewBox="0 0 32 32"><path d="M16.316 32h-.32l-.461.001c-2.329 0-4.64-.072-6.933-.212l.314.015c-2.066-.126-3.952-.84-5.454-2.064-1.45-1.182-2.44-2.78-2.942-4.75-.44-1.716-.46-3.4-.484-5.026C.02 18.794.004 17.41 0 16.004c.004-1.414.02-2.8.036-3.968.022-1.628.046-3.31.484-5.026.5-1.97 1.492-3.568 2.94-4.75C4.966 1.036 6.852.32 8.92.196c2.252-.138 4.57-.2 7.084-.196l.443-.001c2.335 0 4.653.071 6.952.212l-.316-.015c2.066.124 3.952.84 5.454 2.064 1.45 1.182 2.44 2.78 2.944 4.75.436 1.716.46 3.4.48 5.026.018 1.17.034 2.554.038 3.96v.006c-.004 1.408-.02 2.792-.036 3.96-.022 1.63-.046 3.312-.482 5.028-.504 1.97-1.494 3.568-2.944 4.75-1.502 1.224-3.388 1.94-5.454 2.064-1.968.125-4.268.196-6.585.196h-.193.01zm-.32-2.5.48.001c2.271 0 4.526-.069 6.763-.206l-.307.015c1.56-.096 2.916-.602 4.026-1.508 1.026-.836 1.734-1.99 2.1-3.43.364-1.428.386-2.96.406-4.444.016-1.16.032-2.534.036-3.928-.004-1.394-.02-2.768-.036-3.93-.02-1.48-.04-3.014-.406-4.44-.368-1.44-1.074-2.596-2.1-3.432-1.11-.906-2.464-1.412-4.026-1.508-1.93-.122-4.186-.191-6.457-.191l-.5.001h.026l-.485-.001c-2.269 0-4.522.069-6.756.206l.307-.015c-1.56.096-2.916.602-4.026 1.508-1.026.836-1.734 1.99-2.1 3.43-.364 1.428-.386 2.96-.406 4.442a364.21 364.21 0 0 0-.036 3.932c.004 1.39.02 2.766.036 3.926.02 1.484.04 3.016.406 4.444.366 1.44 1.074 2.594 2.1 3.43 1.11.906 2.464 1.412 4.026 1.508 2.2.134 4.468.196 6.928.19zm-.06-5.688A7.82 7.82 0 0 1 8.126 16a7.82 7.82 0 0 1 7.814-7.812A7.82 7.82 0 0 1 23.75 16a7.82 7.82 0 0 1-7.812 7.812zm0-13.124A5.32 5.32 0 0 0 10.626 16a5.32 5.32 0 0 0 5.314 5.312A5.32 5.32 0 0 0 21.25 16a5.32 5.32 0 0 0-5.312-5.312zm8.69-5-.061-.001a1.876 1.876 0 0 0 0 3.752l.064-.001h-.003a1.877 1.877 0 0 0 .003-3.75h-.003z"/></symbol><symbol id="facebook" viewBox="0 0 32 32"><path d="M22.512.006 18.896 0c-4.064 0-6.69 3.092-6.69 7.876v3.63H8.568c-.314 0-.568.294-.568.654v5.26c0 .36.254.652.568.652h3.638v13.276c0 .36.254.652.568.652h4.746c.314 0 .568-.292.568-.652V18.072h4.252c.314 0 .568-.292.568-.652l.002-5.26c0-.174-.06-.34-.166-.462a.535.535 0 0 0-.402-.192h-4.254V8.428c0-1.48.308-2.23 1.986-2.23h2.438c.314 0 .568-.294.568-.654V.66c0-.36-.254-.652-.568-.654z"/></symbol><symbol id="clock" viewBox="0 0 32 32"><path fill="#674d40" style="fill:var(--color2, #674d40)" d="M16 0C7.177 0 0 7.177 0 16s7.177 16 16 16 16-7.177 16-16S24.823 0 16 0zm0 30.933C7.765 30.933 1.067 24.234 1.067 16S7.766 1.067 16 1.067c8.235 0 14.933 6.699 14.933 14.933S24.234 30.933 16 30.933z"/><path fill="#674d40" style="fill:var(--color2, #674d40)" d="M16.533 13.877v-5.41a.533.533 0 1 0-1.066 0v5.41a2.132 2.132 0 0 0-1.524 1.524h-3.81a.533.533 0 1 0 0 1.066h3.81a2.13 2.13 0 0 0 2.057 1.6 2.134 2.134 0 0 0 2.133-2.133c0-.99-.683-1.818-1.6-2.057zM16 17.001a1.067 1.067 0 0 1 .002-2.134h.002a1.067 1.067 0 0 1-.002 2.134H16zm0-11.732a.533.533 0 0 0 .533-.533v-.533a.533.533 0 1 0-1.066 0v.533c0 .294.239.533.533.533zm0 21.334a.533.533 0 0 0-.533.533v.533a.533.533 0 1 0 1.066 0v-.533a.533.533 0 0 0-.533-.533zm11.733-11.2H27.2a.533.533 0 1 0 0 1.066h.533a.533.533 0 1 0 0-1.066zm-22.933 0h-.533a.533.533 0 1 0 0 1.066H4.8a.533.533 0 1 0 0-1.066zm19.119-8.142-.376.378a.533.533 0 1 0 .754.754l.376-.378a.533.533 0 1 0-.754-.754zM7.703 23.477l-.376.378a.533.533 0 1 0 .754.754l.376-.378a.533.533 0 1 0-.754-.754zm16.594 0a.533.533 0 1 0-.754.754l.376.378a.533.533 0 1 0 .754-.754l-.376-.378zM8.081 7.261a.533.533 0 1 0-.754.754l.376.378a.53.53 0 0 0 .754 0 .53.53 0 0 0 0-.754l-.376-.378z"/></symbol><symbol id="chef-hat" viewBox="0 0 32 32"><path fill="#674d40" style="fill:var(--color2, #674d40)" d="M23.15 9.47a.458.458 0 0 1-.457-.457 6.694 6.694 0 0 0-13.384-.009v.009a.458.458 0 0 1-.914 0 7.608 7.608 0 0 1 15.212-.006v.006a.458.458 0 0 1-.457.457z"/><path fill="#674d40" style="fill:var(--color2, #674d40)" d="M24.485 19.816h-.003a.458.458 0 0 1-.003-.914 6.646 6.646 0 0 0 6.607-6.555v-.005a6.64 6.64 0 0 0-6.639-6.574h-.053.003c-.674 0-1.346.099-1.99.296a.457.457 0 0 1-.271-.873l.003-.001a7.712 7.712 0 0 1 2.26-.335h.048a7.555 7.555 0 0 1 7.555 7.485v.004a7.564 7.564 0 0 1-7.506 7.474H24.487zm-16.97 0h-.006A7.563 7.563 0 0 1 0 12.346v-.005a7.554 7.554 0 0 1 7.553-7.488h.052-.003c.766 0 1.527.111 2.26.335a.458.458 0 1 1-.271.873l.003.001a6.633 6.633 0 0 0-1.982-.296h-.011.001-.049a6.639 6.639 0 0 0-6.639 6.57v.004a6.648 6.648 0 0 0 6.605 6.56h.002a.459.459 0 0 1 .416.637l.001-.003a.458.458 0 0 1-.422.28h-.002z"/><path fill="#674d40" style="fill:var(--color2, #674d40)" d="M24.485 31.188H7.516a.458.458 0 0 1-.457-.457V19.359a.458.458 0 0 1 .914 0v10.915h16.055V19.359a.458.458 0 0 1 .914 0v11.372a.458.458 0 0 1-.457.457z"/><path fill="#674d40" style="fill:var(--color2, #674d40)" d="M27.666 26.758H10.697a.458.458 0 0 1 0-.914h16.969a.458.458 0 0 1 0 .914z"/></symbol><symbol id="chat" viewBox="0 0 32 32"><path fill="#674d40" style="fill:var(--color2, #674d40)" d="M24.62 15.671c0-6.705-6.159-11.099-12.308-11.099C6.134 4.572 0 8.988 0 15.671c0 2.53.965 5.001 2.718 6.964a.333.333 0 0 1 .066.298l.001-.002C2.233 25.246.929 27.335.396 28.127a.882.882 0 0 0-.069.854l-.002-.006c.099.253.338.43.619.439h.019c2.618-.076 5.653-.923 7.528-3.038a.243.243 0 0 1 .255-.079h-.002c1.154.314 2.353.472 3.566.472 6.174 0 12.312-4.413 12.312-11.098zM8.96 25.25a1.093 1.093 0 0 0-1.123.355l-.001.002c-1.877 2.12-4.94 2.6-6.391 2.706.663-1.048 1.74-2.976 2.245-5.099a1.516 1.516 0 0 0-.318-1.352l.002.002C1.782 20.081.939 17.94.939 15.671c0-5.527 5.102-10.024 11.374-10.024 6.27 0 11.372 4.495 11.372 10.024 0 5.527-5.102 10.024-11.372 10.024h-.015c-1.187 0-2.335-.162-3.425-.465l.09.021z"/><path fill="#674d40" style="fill:var(--color2, #674d40)" d="M27.636 24.606C30.368 23.021 32 20.32 32 17.382c0-4.154-3.273-7.704-7.782-8.44-.256-.041-.494.163-.53.457s.142.565.398.608c4.043.66 6.978 3.762 6.978 7.375 0 2.525-1.44 4.867-3.851 6.263-.468.274-.719.873-.61 1.463.229 1.231.715 2.373 1.103 3.147-2.767-.529-3.817-2.053-4.149-2.712-.204-.407-.588-.66-1.001-.66h-.038a9.86 9.86 0 0 1-1.547-.122c-.256-.041-.494.163-.529.457-.037.294.142.565.399.608.549.088 1.112.133 1.676.133h.038c.083.002.154.05.188.121l.001.001c1.269 2.523 4.189 3.17 5.384 3.328.265.035.517-.102.657-.361a.864.864 0 0 0-.007-.839l.002.004c-.36-.643-1.003-1.932-1.262-3.328a.265.265 0 0 1 .117-.277l.001-.001zm-22.62-10.86c-.896 0-1.624.837-1.624 1.864 0 1.029.728 1.865 1.624 1.865s1.624-.838 1.624-1.865c0-1.027-.728-1.864-1.624-1.864zm0 2.652c-.379 0-.687-.352-.687-.786 0-.436.308-.789.686-.789.381 0 .689.354.689.789 0 .434-.309.788-.687.788zm4.634-2.652c-.896 0-1.624.837-1.624 1.864 0 1.029.728 1.865 1.624 1.865s1.624-.838 1.624-1.865c0-1.027-.728-1.864-1.624-1.864zm0 2.652c-.378 0-.686-.352-.686-.786 0-.436.308-.789.686-.789.379 0 .687.354.687.789 0 .434-.308.788-.686.788zm4.636-2.652c-.896 0-1.626.837-1.626 1.864 0 1.029.73 1.865 1.626 1.865.894 0 1.624-.838 1.624-1.865s-.73-1.864-1.624-1.864zm0 2.652c-.381 0-.687-.352-.687-.786 0-.436.308-.789.686-.789.381 0 .687.354.687.789 0 .434-.308.788-.686.788zm4.634-2.652c-.896 0-1.624.837-1.624 1.864 0 1.029.728 1.865 1.624 1.865s1.624-.838 1.624-1.865c0-1.027-.728-1.864-1.624-1.864zm0 2.652c-.378 0-.686-.352-.686-.786 0-.436.308-.789.686-.789.379 0 .687.354.687.789 0 .434-.308.788-.686.788z"/></symbol></defs></svg>